<svg width="512" height="512" viewBox="0 0 512 512" xmlns="http://www.w3.org/2000/svg">
    <!-- Modern dashboard/analytics style icon -->

    <!-- Dark gradient background -->
    <defs>
        <radialGradient id="dashBg" cx="50%" cy="30%" r="70%">
            <stop offset="0%" style="stop-color:#1E293B"/>
            <stop offset="100%" style="stop-color:#0F172A"/>
        </radialGradient>
    </defs>

    <!-- Rounded square background -->
    <rect x="32" y="32" width="448" height="448" rx="90" fill="url(#dashBg)"/>

    <!-- Central monitoring screen/dashboard -->
    <rect x="150" y="180" width="212" height="152" rx="12" fill="#374151" stroke="#06B6D4" stroke-width="3"/>

    <!-- Screen content - performance graph -->
    <polyline points="170,280 200,250 240,270 280,230 320,240 342,220"
              fill="none" stroke="#10B981" stroke-width="4" stroke-linecap="round"/>

    <!-- Dashboard indicators -->
    <circle cx="180" cy="200" r="4" fill="#10B981"/>
    <circle cx="200" cy="200" r="4" fill="#F59E0B"/>
    <circle cx="220" cy="200" r="4" fill="#EF4444"/>

    <!-- Side performance bars -->
    <rect x="80" y="240" width="12" height="40" rx="6" fill="#06B6D4"/>
    <rect x="100" y="220" width="12" height="60" rx="6" fill="#06B6D4"/>
    <rect x="120" y="200" width="12" height="80" rx="6" fill="#06B6D4"/>

    <rect x="400" y="240" width="12" height="40" rx="6" fill="#8B5CF6"/>
    <rect x="420" y="220" width="12" height="60" rx="6" fill="#8B5CF6"/>
    <rect x="440" y="200" width="12" height="80" rx="6" fill="#8B5CF6"/>

    <!-- Stylized "AURA" text or symbol -->
    <text x="256" y="380" text-anchor="middle" fill="#06B6D4" font-family="Arial, sans-serif" font-size="32"
          font-weight="bold">AURA
    </text>
</svg>
